<svg width="505" height="239" viewBox="0 0 505 239" fill="none" xmlns="http://www.w3.org/2000/svg">
<path d="M290.085 73.395H287.875C287.875 76.4283 287.875 79.3317 287.875 82.105C287.918 84.835 287.962 87.5433 288.005 90.23H290.085C293.118 90.23 295.458 89.5367 297.105 88.15C298.795 86.7633 299.64 84.6833 299.64 81.91C299.64 78.9633 298.838 76.8183 297.235 75.475C295.675 74.0883 293.292 73.395 290.085 73.395ZM290.28 55.065H288.005C287.962 57.4917 287.918 59.9617 287.875 62.475C287.875 64.945 287.875 67.4367 287.875 69.95H289.695C292.468 69.95 294.505 69.3 295.805 68C297.105 66.6567 297.755 64.7067 297.755 62.15C297.755 57.4267 295.263 55.065 290.28 55.065ZM272.145 54.805V51.295H293.14C296.823 51.295 299.77 51.75 301.98 52.66C304.19 53.5267 305.793 54.7183 306.79 56.235C307.787 57.7517 308.285 59.4633 308.285 61.37C308.285 62.8433 307.96 64.23 307.31 65.53C306.66 66.7867 305.533 67.9133 303.93 68.91C302.327 69.8633 300.095 70.6 297.235 71.12C302.088 71.6833 305.555 72.9183 307.635 74.825C309.758 76.6883 310.82 79.0933 310.82 82.04C310.82 83.3833 310.517 84.77 309.91 86.2C309.303 87.5867 308.263 88.865 306.79 90.035C305.317 91.205 303.258 92.1583 300.615 92.895C298.015 93.6317 294.7 94 290.67 94H272.145V90.49L277.02 89.97C277.107 87.2833 277.15 84.575 277.15 81.845C277.15 79.115 277.15 76.3633 277.15 73.59V71.705C277.15 69.0183 277.15 66.31 277.15 63.58C277.15 60.8067 277.107 58.055 277.02 55.325L272.145 54.805ZM330.723 64.945C329.51 64.945 328.383 65.7033 327.343 67.22C326.347 68.6933 325.783 71.4233 325.653 75.41H331.178C332.738 75.41 333.778 75.1067 334.298 74.5C334.862 73.85 335.143 72.7883 335.143 71.315C335.143 69.1483 334.71 67.545 333.843 66.505C332.977 65.465 331.937 64.945 330.723 64.945ZM330.853 94.975C327.69 94.975 324.895 94.325 322.468 93.025C320.042 91.6817 318.135 89.775 316.748 87.305C315.362 84.7917 314.668 81.8017 314.668 78.335C314.668 74.695 315.47 71.64 317.073 69.17C318.72 66.6567 320.822 64.7717 323.378 63.515C325.935 62.215 328.6 61.565 331.373 61.565C334.233 61.565 336.66 62.1717 338.653 63.385C340.69 64.5983 342.228 66.245 343.268 68.325C344.308 70.3617 344.828 72.7017 344.828 75.345C344.828 76.6017 344.698 77.75 344.438 78.79H325.653C325.87 82.2133 326.802 84.7483 328.448 86.395C330.138 87.9983 332.11 88.8 334.363 88.8C336.14 88.8 337.657 88.475 338.913 87.825C340.17 87.1317 341.275 86.2867 342.228 85.29L344.503 87.37C343.16 89.9267 341.34 91.8333 339.043 93.09C336.747 94.3467 334.017 94.975 330.853 94.975ZM347.85 94V91.465L364.1 65.53H355.26L353.505 72.745L348.24 72.485L348.76 62.605H375.28V65.075L359.55 91.01H368.78L370.665 83.145H375.93L375.28 94H347.85ZM394.771 64.945C393.558 64.945 392.431 65.7033 391.391 67.22C390.394 68.6933 389.831 71.4233 389.701 75.41H395.226C396.786 75.41 397.826 75.1067 398.346 74.5C398.909 73.85 399.191 72.7883 399.191 71.315C399.191 69.1483 398.758 67.545 397.891 66.505C397.024 65.465 395.984 64.945 394.771 64.945ZM394.901 94.975C391.738 94.975 388.943 94.325 386.516 93.025C384.089 91.6817 382.183 89.775 380.796 87.305C379.409 84.7917 378.716 81.8017 378.716 78.335C378.716 74.695 379.518 71.64 381.121 69.17C382.768 66.6567 384.869 64.7717 387.426 63.515C389.983 62.215 392.648 61.565 395.421 61.565C398.281 61.565 400.708 62.1717 402.701 63.385C404.738 64.5983 406.276 66.245 407.316 68.325C408.356 70.3617 408.876 72.7017 408.876 75.345C408.876 76.6017 408.746 77.75 408.486 78.79H389.701C389.918 82.2133 390.849 84.7483 392.496 86.395C394.186 87.9983 396.158 88.8 398.411 88.8C400.188 88.8 401.704 88.475 402.961 87.825C404.218 87.1317 405.323 86.2867 406.276 85.29L408.551 87.37C407.208 89.9267 405.388 91.8333 403.091 93.09C400.794 94.3467 398.064 94.975 394.901 94.975ZM412.483 94V90.945L416.058 90.23C416.101 88.6267 416.123 86.915 416.123 85.095C416.123 83.275 416.123 81.6933 416.123 80.35V76.515C416.123 75.3017 416.101 74.305 416.058 73.525C416.058 72.745 416.036 72.03 415.993 71.38C415.993 70.6867 415.971 69.9067 415.928 69.04L411.963 68.455V65.92L424.768 61.565L425.938 62.28L426.523 69.95C427.433 67.1767 428.711 65.0967 430.358 63.71C432.004 62.28 433.629 61.565 435.233 61.565C436.663 61.565 437.898 61.9767 438.938 62.8C439.978 63.58 440.628 64.7717 440.888 66.375C440.844 68.065 440.389 69.3867 439.523 70.34C438.656 71.25 437.573 71.705 436.273 71.705C434.453 71.705 432.784 70.6867 431.268 68.65L430.878 68.13C429.924 69.04 429.036 70.1883 428.213 71.575C427.433 72.9617 426.869 74.4133 426.523 75.93V80.35C426.523 81.6933 426.523 83.2317 426.523 84.965C426.523 86.6983 426.544 88.3233 426.588 89.84L431.723 90.945V94H412.483ZM442.697 94V90.945L446.272 90.23C446.316 88.6267 446.337 86.915 446.337 85.095C446.337 83.275 446.337 81.6933 446.337 80.35V76.515C446.337 75.3017 446.316 74.305 446.272 73.525C446.272 72.745 446.251 72.03 446.207 71.38C446.207 70.6867 446.186 69.9067 446.142 69.04L442.177 68.455V65.92L454.982 61.565L456.152 62.28L456.737 69.95C457.647 67.1767 458.926 65.0967 460.572 63.71C462.219 62.28 463.844 61.565 465.447 61.565C466.877 61.565 468.112 61.9767 469.152 62.8C470.192 63.58 470.842 64.7717 471.102 66.375C471.059 68.065 470.604 69.3867 469.737 70.34C468.871 71.25 467.787 71.705 466.487 71.705C464.667 71.705 462.999 70.6867 461.482 68.65L461.092 68.13C460.139 69.04 459.251 70.1883 458.427 71.575C457.647 72.9617 457.084 74.4133 456.737 75.93V80.35C456.737 81.6933 456.737 83.2317 456.737 84.965C456.737 86.6983 456.759 88.3233 456.802 89.84L461.937 90.945V94H442.697ZM496.545 94.91C492.775 94.91 490.392 93.35 489.395 90.23C488.009 91.7033 486.665 92.8733 485.365 93.74C484.109 94.5633 482.354 94.975 480.1 94.975C477.587 94.975 475.529 94.26 473.925 92.83C472.365 91.4 471.585 89.3417 471.585 86.655C471.585 85.095 471.932 83.6867 472.625 82.43C473.319 81.1733 474.575 80.0033 476.395 78.92C478.215 77.8367 480.794 76.8183 484.13 75.865C484.78 75.6483 485.539 75.4317 486.405 75.215C487.272 74.9983 488.16 74.7817 489.07 74.565V72.42C489.07 69.5167 488.702 67.545 487.965 66.505C487.272 65.465 485.885 64.945 483.805 64.945C483.502 64.945 483.22 64.945 482.96 64.945C482.7 64.945 482.397 64.9667 482.05 65.01L481.725 67.87C481.682 69.9933 481.184 71.5317 480.23 72.485C479.32 73.4383 478.237 73.915 476.98 73.915C474.597 73.915 473.145 72.8317 472.625 70.665C472.799 67.9783 474.164 65.79 476.72 64.1C479.277 62.41 482.895 61.565 487.575 61.565C491.735 61.565 494.704 62.5183 496.48 64.425C498.3 66.3317 499.21 69.4733 499.21 73.85V88.41C499.21 89.6667 499.687 90.295 500.64 90.295C500.987 90.295 501.312 90.2083 501.615 90.035C501.919 89.8183 502.244 89.4283 502.59 88.865L504.345 90.035C503.565 91.7683 502.547 93.025 501.29 93.805C500.077 94.5417 498.495 94.91 496.545 94.91ZM481.205 84.965C481.205 86.5683 481.574 87.76 482.31 88.54C483.09 89.32 484.022 89.71 485.105 89.71C485.582 89.71 486.08 89.6017 486.6 89.385C487.12 89.1683 487.944 88.67 489.07 87.89V77.36C488.507 77.5333 487.944 77.7283 487.38 77.945C486.86 78.1183 486.405 78.2917 486.015 78.465C484.542 79.0717 483.372 79.9383 482.505 81.065C481.639 82.1483 481.205 83.4483 481.205 84.965Z" fill="white"/>
<path d="M293.175 131.599H290.625C290.625 135.099 290.625 138.449 290.625 141.649C290.675 144.799 290.725 147.924 290.775 151.024H293.175C296.675 151.024 299.375 150.224 301.275 148.624C303.225 147.024 304.2 144.624 304.2 141.424C304.2 138.024 303.275 135.549 301.425 133.999C299.625 132.399 296.875 131.599 293.175 131.599ZM293.4 110.449H290.775C290.725 113.249 290.675 116.099 290.625 118.999C290.625 121.849 290.625 124.724 290.625 127.624H292.725C295.925 127.624 298.275 126.874 299.775 125.374C301.275 123.824 302.025 121.574 302.025 118.624C302.025 113.174 299.15 110.449 293.4 110.449ZM272.475 110.149V106.099H296.7C300.95 106.099 304.35 106.624 306.9 107.674C309.45 108.674 311.3 110.049 312.45 111.799C313.6 113.549 314.175 115.524 314.175 117.724C314.175 119.424 313.8 121.024 313.05 122.524C312.3 123.974 311 125.274 309.15 126.424C307.3 127.524 304.725 128.374 301.425 128.974C307.025 129.624 311.025 131.049 313.425 133.249C315.875 135.399 317.1 138.174 317.1 141.574C317.1 143.124 316.75 144.724 316.05 146.374C315.35 147.974 314.15 149.449 312.45 150.799C310.75 152.149 308.375 153.249 305.325 154.099C302.325 154.949 298.5 155.374 293.85 155.374H272.475V151.324L278.1 150.724C278.2 147.624 278.25 144.499 278.25 141.349C278.25 138.199 278.25 135.024 278.25 131.824V129.649C278.25 126.549 278.25 123.424 278.25 120.274C278.25 117.074 278.2 113.899 278.1 110.749L272.475 110.149ZM339.84 156.499C335.94 156.499 332.565 155.699 329.715 154.099C326.865 152.449 324.665 150.174 323.115 147.274C321.565 144.324 320.79 140.924 320.79 137.074C320.79 133.224 321.615 129.874 323.265 127.024C324.965 124.174 327.265 121.949 330.165 120.349C333.065 118.749 336.29 117.949 339.84 117.949C343.39 117.949 346.59 118.724 349.44 120.274C352.34 121.824 354.64 124.049 356.34 126.949C358.04 129.799 358.89 133.174 358.89 137.074C358.89 140.974 358.115 144.374 356.565 147.274C355.015 150.174 352.815 152.449 349.965 154.099C347.115 155.699 343.74 156.499 339.84 156.499ZM339.84 152.599C341.94 152.599 343.515 151.374 344.565 148.924C345.615 146.474 346.14 142.599 346.14 137.299C346.14 131.949 345.615 128.049 344.565 125.599C343.515 123.149 341.94 121.924 339.84 121.924C337.69 121.924 336.09 123.149 335.04 125.599C333.99 128.049 333.465 131.949 333.465 137.299C333.465 142.599 333.99 146.474 335.04 148.924C336.09 151.374 337.69 152.599 339.84 152.599ZM362.297 155.374V151.849L366.422 151.024C366.472 149.174 366.497 147.199 366.497 145.099C366.497 142.999 366.497 141.174 366.497 139.624V135.199C366.497 133.799 366.472 132.649 366.422 131.749C366.422 130.849 366.397 130.024 366.347 129.274C366.347 128.474 366.322 127.574 366.272 126.574L361.697 125.899V122.974L376.472 117.949L377.822 118.774L378.497 127.624C379.547 124.424 381.022 122.024 382.922 120.424C384.822 118.774 386.697 117.949 388.547 117.949C390.197 117.949 391.622 118.424 392.822 119.374C394.022 120.274 394.772 121.649 395.072 123.499C395.022 125.449 394.497 126.974 393.497 128.074C392.497 129.124 391.247 129.649 389.747 129.649C387.647 129.649 385.722 128.474 383.972 126.124L383.522 125.524C382.422 126.574 381.397 127.899 380.447 129.499C379.547 131.099 378.897 132.774 378.497 134.524V139.624C378.497 141.174 378.497 142.949 378.497 144.949C378.497 146.949 378.522 148.824 378.572 150.574L384.497 151.849V155.374H362.297ZM411.516 138.574C413.266 138.574 414.566 137.799 415.416 136.249C416.316 134.699 416.766 132.599 416.766 129.949C416.766 127.299 416.316 125.249 415.416 123.799C414.566 122.299 413.316 121.549 411.666 121.549C409.966 121.549 408.691 122.299 407.841 123.799C406.991 125.299 406.566 127.374 406.566 130.024C406.566 132.674 406.966 134.774 407.766 136.324C408.566 137.824 409.816 138.574 411.516 138.574ZM401.541 161.599C401.541 163.799 402.366 165.399 404.016 166.399C405.666 167.449 408.191 167.974 411.591 167.974C415.341 167.974 418.166 167.424 420.066 166.324C421.966 165.224 422.916 163.849 422.916 162.199C422.916 161.099 422.516 160.099 421.716 159.199C420.916 158.349 419.491 157.924 417.441 157.924H409.566C406.816 157.924 404.541 157.699 402.741 157.249C402.341 157.949 402.041 158.624 401.841 159.274C401.641 159.924 401.541 160.699 401.541 161.599ZM411.591 142.099C408.991 142.099 406.716 141.799 404.766 141.199C404.166 142.249 403.866 143.399 403.866 144.649C403.866 145.499 404.191 146.199 404.841 146.749C405.491 147.249 406.616 147.499 408.216 147.499H416.991C420.791 147.499 423.816 147.974 426.066 148.924C428.316 149.824 429.916 151.099 430.866 152.749C431.866 154.349 432.366 156.249 432.366 158.449C432.366 160.949 431.541 163.249 429.891 165.349C428.241 167.499 425.766 169.199 422.466 170.449C419.216 171.749 415.191 172.399 410.391 172.399C406.241 172.399 402.991 171.974 400.641 171.124C398.291 170.324 396.641 169.249 395.691 167.899C394.741 166.549 394.266 165.124 394.266 163.624C394.266 160.424 396.341 157.849 400.491 155.899C398.941 155.249 397.816 154.399 397.116 153.349C396.466 152.299 396.141 151.149 396.141 149.899C396.141 148.149 396.641 146.499 397.641 144.949C398.691 143.349 400.141 141.749 401.991 140.149C399.941 139.099 398.416 137.699 397.416 135.949C396.416 134.199 395.916 132.249 395.916 130.099C395.916 126.599 397.191 123.699 399.741 121.399C402.341 119.099 406.291 117.949 411.591 117.949C414.291 117.949 416.641 118.249 418.641 118.849C420.641 119.449 422.266 120.299 423.516 121.399L431.916 117.799L433.116 118.549V124.324H425.991C426.891 125.974 427.341 127.899 427.341 130.099C427.341 133.449 426.041 136.299 423.441 138.649C420.891 140.949 416.941 142.099 411.591 142.099ZM452.568 121.849C451.168 121.849 449.868 122.724 448.668 124.474C447.518 126.174 446.868 129.324 446.718 133.924H453.093C454.893 133.924 456.093 133.574 456.693 132.874C457.343 132.124 457.668 130.899 457.668 129.199C457.668 126.699 457.168 124.849 456.168 123.649C455.168 122.449 453.968 121.849 452.568 121.849ZM452.718 156.499C449.068 156.499 445.843 155.749 443.043 154.249C440.243 152.699 438.043 150.499 436.443 147.649C434.843 144.749 434.043 141.299 434.043 137.299C434.043 133.099 434.968 129.574 436.818 126.724C438.718 123.824 441.143 121.649 444.093 120.199C447.043 118.699 450.118 117.949 453.318 117.949C456.618 117.949 459.418 118.649 461.718 120.049C464.068 121.449 465.843 123.349 467.043 125.749C468.243 128.099 468.843 130.799 468.843 133.849C468.843 135.299 468.693 136.624 468.393 137.824H446.718C446.968 141.774 448.043 144.699 449.943 146.599C451.893 148.449 454.168 149.374 456.768 149.374C458.818 149.374 460.568 148.999 462.018 148.249C463.468 147.449 464.743 146.474 465.843 145.324L468.468 147.724C466.918 150.674 464.818 152.874 462.168 154.324C459.518 155.774 456.368 156.499 452.718 156.499ZM485.529 156.499C480.779 156.499 476.429 155.349 472.479 153.049L472.704 143.899H478.704L479.979 151.324C480.879 151.674 481.779 151.949 482.679 152.149C483.579 152.299 484.554 152.374 485.604 152.374C487.754 152.374 489.404 152.024 490.554 151.324C491.704 150.574 492.279 149.449 492.279 147.949C492.279 146.799 491.854 145.799 491.004 144.949C490.154 144.099 488.479 143.324 485.979 142.624L481.929 141.424C479.029 140.574 476.779 139.199 475.179 137.299C473.629 135.399 472.854 133.049 472.854 130.249C472.854 126.799 474.204 123.899 476.904 121.549C479.604 119.149 483.479 117.949 488.529 117.949C490.729 117.949 492.754 118.224 494.604 118.774C496.504 119.274 498.429 120.024 500.379 121.024L499.854 129.199H493.854L492.354 122.749C491.304 122.349 489.929 122.149 488.229 122.149C486.529 122.149 485.154 122.499 484.104 123.199C483.104 123.899 482.604 124.949 482.604 126.349C482.604 127.349 483.004 128.249 483.804 129.049C484.604 129.799 486.304 130.574 488.904 131.374L492.579 132.424C496.129 133.474 498.679 134.974 500.229 136.924C501.779 138.874 502.554 141.249 502.554 144.049C502.554 147.999 501.029 151.074 497.979 153.274C494.979 155.424 490.829 156.499 485.529 156.499Z" fill="white"/>
<path d="M277.69 193.514H273.363L272.851 194.71C272.682 195.102 272.598 195.43 272.598 195.694C272.598 195.954 272.682 196.171 272.851 196.344C273.019 196.512 273.473 196.619 274.211 196.665V197H270.144V196.665C270.586 196.597 270.952 196.403 271.244 196.084C271.536 195.765 271.88 195.161 272.276 194.272L276.651 184.511H276.822L281.231 194.546C281.601 195.384 281.906 195.94 282.147 196.214C282.389 196.483 282.719 196.633 283.139 196.665V197H277.219V196.665H277.465C278.262 196.665 278.661 196.46 278.661 196.05C278.661 195.886 278.554 195.551 278.34 195.045L277.69 193.514ZM277.383 192.851L275.558 188.633L273.685 192.851H277.383ZM297.59 197V196.665H297.993C298.294 196.665 298.545 196.619 298.745 196.528C298.95 196.433 299.096 196.303 299.183 196.139C299.269 195.975 299.312 195.564 299.312 194.908V186.855C299.312 186.368 299.294 186.028 299.258 185.837C299.226 185.641 299.101 185.47 298.882 185.324C298.668 185.174 298.371 185.099 297.993 185.099H297.59V184.764H303.065C305.376 184.764 307.094 185.317 308.22 186.425C309.35 187.528 309.915 189.025 309.915 190.916C309.915 192.889 309.311 194.398 308.104 195.441C306.9 196.48 305.221 197 303.065 197H297.59ZM302.252 185.461V195.004C302.252 195.505 302.307 195.852 302.416 196.043C302.53 196.234 302.815 196.33 303.271 196.33C305.526 196.33 306.654 194.55 306.654 190.991C306.654 189.619 306.479 188.519 306.128 187.689C305.782 186.86 305.342 186.279 304.809 185.946C304.28 185.614 303.428 185.452 302.252 185.461ZM337.847 184.764V185.099C337.377 185.176 336.997 185.393 336.705 185.748C336.413 186.099 336.019 186.826 335.522 187.929L331.312 197.28H331.011L326.144 185.974C325.834 185.454 325.396 185.162 324.831 185.099V184.764H330.696V185.099H330.498C329.637 185.099 329.206 185.297 329.206 185.693C329.206 185.871 329.393 186.395 329.767 187.266L332.378 193.356L334.791 187.929C335.215 186.976 335.427 186.347 335.427 186.042C335.427 185.413 334.894 185.099 333.827 185.099V184.764H337.847ZM359.168 184.593C360.494 184.593 361.627 184.834 362.565 185.317C363.504 185.8 364.268 186.523 364.855 187.484C365.448 188.446 365.744 189.562 365.744 190.834C365.744 192.611 365.163 194.131 364.001 195.394C362.843 196.651 361.271 197.28 359.284 197.28C357.115 197.28 355.483 196.622 354.39 195.305C353.3 193.988 352.756 192.502 352.756 190.848C352.756 189.763 352.991 188.758 353.46 187.833C353.929 186.908 354.643 186.138 355.6 185.522C356.561 184.903 357.751 184.593 359.168 184.593ZM359.277 185.167C357.099 185.167 356.01 187.088 356.01 190.93C356.01 194.712 357.092 196.604 359.257 196.604C361.412 196.604 362.49 194.735 362.49 190.998C362.49 187.111 361.419 185.167 359.277 185.167ZM393.163 184.483V188.797H392.828C392.45 187.68 391.867 186.801 391.078 186.158C390.29 185.511 389.387 185.188 388.371 185.188C386.954 185.188 385.94 185.739 385.329 186.842C384.723 187.945 384.42 189.312 384.42 190.943C384.42 194.717 385.737 196.604 388.371 196.604C388.945 196.604 389.565 196.48 390.23 196.234V193.691C390.23 192.698 389.809 192.201 388.966 192.201H388.651V191.866H394.599V192.201C394.015 192.238 393.63 192.356 393.443 192.557C393.257 192.757 393.163 193.135 393.163 193.691V196.234C391.586 196.936 389.896 197.287 388.091 197.287C386.715 197.287 385.509 197.016 384.475 196.474C383.445 195.927 382.636 195.191 382.048 194.266C381.46 193.34 381.166 192.267 381.166 191.046C381.166 189.77 381.462 188.646 382.055 187.676C382.652 186.701 383.458 185.924 384.475 185.345C385.491 184.766 386.662 184.477 387.988 184.477C388.895 184.477 389.864 184.663 390.894 185.037C391.495 185.256 391.853 185.365 391.967 185.365C392.336 185.365 392.623 185.071 392.828 184.483H393.163ZM416.487 193.514H412.16L411.647 194.71C411.479 195.102 411.395 195.43 411.395 195.694C411.395 195.954 411.479 196.171 411.647 196.344C411.816 196.512 412.27 196.619 413.008 196.665V197H408.94V196.665C409.382 196.597 409.749 196.403 410.041 196.084C410.333 195.765 410.677 195.161 411.073 194.272L415.448 184.511H415.619L420.028 194.546C420.397 195.384 420.703 195.94 420.944 196.214C421.186 196.483 421.516 196.633 421.936 196.665V197H416.016V196.665H416.262C417.059 196.665 417.458 196.46 417.458 196.05C417.458 195.886 417.351 195.551 417.137 195.045L416.487 193.514ZM416.18 192.851L414.354 188.633L412.481 192.851H416.18ZM436.387 197V196.665H436.79C437.091 196.665 437.341 196.619 437.542 196.528C437.747 196.433 437.893 196.303 437.979 196.139C438.066 195.975 438.109 195.564 438.109 194.908V186.855C438.109 186.368 438.091 186.028 438.055 185.837C438.023 185.641 437.897 185.47 437.679 185.324C437.465 185.174 437.168 185.099 436.79 185.099H436.387V184.764H441.862C444.173 184.764 445.891 185.317 447.017 186.425C448.147 187.528 448.712 189.025 448.712 190.916C448.712 192.889 448.108 194.398 446.9 195.441C445.697 196.48 444.018 197 441.862 197H436.387ZM441.049 185.461V195.004C441.049 195.505 441.104 195.852 441.213 196.043C441.327 196.234 441.612 196.33 442.067 196.33C444.323 196.33 445.451 194.55 445.451 190.991C445.451 189.619 445.276 188.519 444.925 187.689C444.578 186.86 444.139 186.279 443.605 185.946C443.077 185.614 442.225 185.452 441.049 185.461ZM470.621 184.593C471.947 184.593 473.08 184.834 474.019 185.317C474.957 185.8 475.721 186.523 476.309 187.484C476.901 188.446 477.197 189.562 477.197 190.834C477.197 192.611 476.616 194.131 475.454 195.394C474.297 196.651 472.724 197.28 470.737 197.28C468.568 197.28 466.937 196.622 465.843 195.305C464.754 193.988 464.209 192.502 464.209 190.848C464.209 189.763 464.444 188.758 464.913 187.833C465.382 186.908 466.096 186.138 467.053 185.522C468.014 184.903 469.204 184.593 470.621 184.593ZM470.73 185.167C468.552 185.167 467.463 187.088 467.463 190.93C467.463 194.712 468.545 196.604 470.71 196.604C472.866 196.604 473.943 194.735 473.943 190.998C473.943 187.111 472.872 185.167 470.73 185.167ZM500.549 184.483L500.645 188.564H500.275C500.111 187.607 499.701 186.801 499.045 186.145C498.389 185.488 497.632 185.16 496.775 185.16C496.279 185.16 495.821 185.299 495.401 185.577C494.987 185.851 494.779 186.254 494.779 186.787C494.779 187.225 494.968 187.619 495.347 187.97C495.725 188.316 496.532 188.795 497.767 189.405C499.284 190.148 500.269 190.839 500.72 191.477C501.175 192.115 501.403 192.803 501.403 193.541C501.403 194.626 500.989 195.521 500.159 196.228C499.334 196.934 498.339 197.287 497.172 197.287C496.484 197.287 495.691 197.1 494.793 196.727C494.51 196.608 494.271 196.549 494.075 196.549C493.679 196.549 493.373 196.793 493.159 197.28H492.824V192.659H493.159C493.401 193.835 493.877 194.797 494.588 195.544C495.299 196.287 496.146 196.658 497.131 196.658C497.691 196.658 498.2 196.499 498.655 196.18C499.111 195.861 499.339 195.41 499.339 194.826C499.339 194.348 499.154 193.924 498.785 193.555C498.421 193.181 497.742 192.75 496.748 192.263C495.335 191.565 494.328 190.907 493.727 190.287C493.13 189.667 492.831 188.906 492.831 188.004C492.831 187.001 493.193 186.165 493.918 185.495C494.647 184.821 495.545 184.483 496.611 184.483C497.14 184.483 497.746 184.625 498.43 184.907C499.113 185.185 499.521 185.324 499.653 185.324C499.95 185.324 500.157 185.044 500.275 184.483H500.549Z" fill="white"/>
<path d="M270 170H387" stroke="url(#paint0_linear_358_2)"/>
<path d="M439 170H503" stroke="url(#paint1_linear_358_2)"/>
<path d="M124 18.9399H166L163.658 20.9786H124V18.9399Z" fill="white"/>
<path d="M84.2658 1.32595H0.614861V5.6938H7.93529C13.05 5.78047 22.1593 9.22968 22.1593 18.5894L22.5243 147.152C22.5243 155.476 13.9923 159.127 5.64852 159.127H0.671513L0.671527 164.385H74.0016L196.964 0H189.305L75.5907 151.971H49.7095L49.7095 80.6598V12.1936C57.0774 12.1936 67.4418 12.1676 72.006 12.1676C82.4005 12.1676 88.2903 12.8965 93.3314 14.3995C119.68 22.2551 114.782 48.8655 114.782 48.8655C114.782 48.8655 114.357 73.6927 82.7919 73.6927V85.745C99.7445 85.745 108.206 93.0768 110.317 96.7427L120.191 84.6531L112.068 80.7027C138.94 73.0082 139.881 48.8655 139.881 48.8655C142.824 16.1315 109.353 1.32595 84.2658 1.32595Z" fill="white"/>
<path fill-rule="evenodd" clip-rule="evenodd" d="M0 19H22.549V21H1.94595V216H0V19ZM214.054 183.5V20H216V189.5L214.054 183.5Z" fill="white"/>
<path d="M119.001 215.544H73.0001L71.0002 217.54H119.001V215.544Z" fill="white"/>
<path d="M39 238.342H47.3438L163.864 83.1276C190.306 90.6154 185.461 118.734 185.461 118.734C185.461 118.734 184.89 143.561 153.324 143.561V155.223C182.601 155.223 192.113 182.229 188.371 196.834C182.724 218.872 157.559 221.839 147.783 221.839H120.242L120.242 150.528L93.7153 185.621C93.7153 196.866 93.0569 217.02 93.0569 217.02C93.0569 225.344 84.5248 228.996 76.1811 228.996H71.2041V234.253H145.42C182.601 234.253 198.249 228.996 209.828 214.099C220.953 199.787 222.856 157.581 182.601 151.301V150.571C209.473 142.876 210.413 118.734 210.413 118.734C213.356 85.9996 183.772 73.1683 163.864 72L39 238.342Z" fill="white"/>
<path d="M216 19H193L191.05 21H216V19Z" fill="white"/>
<path d="M0 216H46.2479L44.5 218H0V216Z" fill="white"/>
<defs>
<linearGradient id="paint0_linear_358_2" x1="266.5" y1="182" x2="402" y2="165" gradientUnits="userSpaceOnUse">
<stop/>
<stop offset="1" stop-color="white" stop-opacity="0.46"/>
</linearGradient>
<linearGradient id="paint1_linear_358_2" x1="437.085" y1="182" x2="512.019" y2="176.858" gradientUnits="userSpaceOnUse">
<stop stop-color="white" stop-opacity="0.46"/>
<stop offset="1"/>
</linearGradient>
</defs>
</svg>
